FFmpeg version SVN-r25716, Copyright (c) 2000-2010 the FFmpeg developers  built on Nov 10 2010 12:23:18 with gcc 4.1.2 20080704 (Red Hat 4.1.2-48)  configuration: --enable-libmp3lame --enable-shared --disable-mmx --arch=x86_64  libavutil     50.33. 0 / 50.33. 0  libavcore      0.12. 1 /  0.12. 1  libavcodec    52.94. 4 / 52.94. 4  libavformat   52.84. 0 / 52.84. 0  libavdevice   52. 2. 2 / 52. 2. 2  libavfilter    1.59. 0 /  1.59. 0  libswscale     0.12. 0 /  0.12. 0Seems stream 0 codec frame rate differs from container frame rate: 120.00 (120/1) -> 12.00 (12/1)Input #0, mov,mp4,m4a,3gp,3g2,mj2, from '/RAID10/data/converted_video_files/35191.mov':  Duration: 00:00:17.41, start: 0.000000, bitrate: 1891 kb/s    Stream #0.0(eng): Video: cinepak, yuv420p, 428x372, 1890 kb/s, 8.78 fps, 12 tbr, 120 tbn, 120 tbc[buffer @ 0x1db18870] w:428 h:372 pixfmt:yuv420pOutput #0, flv, to '/RAID10/data/converted_video_files/35191.flv':  Metadata:    encoder         : Lavf52.84.0    Stream #0.0(eng): Video: flv, yuv420p, 428x372, q=2-31, 600 kb/s, 1k tbn, 24 tbcStream mapping:  Stream #0.0 -> #0.0Press [q] to stop encodingframe=   82 fps=  0 q=9.0 size=     499kB time=9.38 bitrate= 436.3kbits/s    frame=  150 fps=144 q=12.6 size=     971kB time=17.04 bitrate= 466.7kbits/s    frame=  153 fps=141 q=12.9 Lsize=     989kB time=17.38 bitrate= 466.1kbits/s    video:986kB audio:0kB global headers:0kB muxing overhead 0.263257%